<svg preserveAspectRatio="none" overflow="visible" style="display: block;" width="36" height="36" viewBox="0 0 36 36" fill="none" xmlns="http://www.w3.org/2000/svg">
<g id="Group 1120">
<rect id="Rectangle 7329" width="36" height="36" rx="10" fill="#E9E4FF"/>
<path id="Vector 50" d="M13.6154 13.8462C14.9581 12.5307 16.1201 10.374 16.9099 8.65434C17.3054 7.79332 18.6946 7.79332 19.0901 8.65434C19.8799 10.374 21.0419 12.5307 22.3846 13.8462C23.678 15.1133 25.7644 16.2126 27.4266 16.9615C28.2808 17.3463 28.3007 18.7027 27.4566 19.1093C25.791 19.9115 23.6888 21.0804 22.3846 22.3846C21.0504 23.7189 19.8577 25.8883 19.0544 27.571C18.6572 28.403 17.3428 28.403 16.9456 27.571C16.1423 25.8883 14.9496 23.7189 13.6154 22.3846C12.3112 21.0804 10.209 19.9115 8.54338 19.1093C7.69925 18.7027 7.71915 17.3463 8.5734 16.9615C10.2356 16.2126 12.322 15.1133 13.6154 13.8462Z" fill="#663DFA"/>
</g>
</svg>
